<svg clip-rule="evenodd" fill-rule="evenodd" stroke-linejoin="round" stroke-miterlimit="2" viewBox="0 0 958 958" xmlns="http://www.w3.org/2000/svg"><path d="m715.56 0h15.5c123.107 1.66 237.487 31.76 343.14 90.3 98.49 54.57 185.57 133.26 249.15 227.73 80.36 119.393 121.91 251.737 124.65 397.03v17.5c-6.3 394.43-321.62 709.49-716.06 715.44h-16.25c-119.773-1.85-231.98-31-336.62-87.47-128.43-69.31-235.06-179.32-300.81-309.05-50.507-99.653-76.593-206-78.26-319.04v-17.25c5.69-392.66 321.42-709.57 715.56-715.19z" fill-rule="nonzero" transform="scale(.661563)"/><path d="m1004.03 822.27c-.28-8.37-7.51-12.71-15.32-12.75-83.153-.473-122.372-.675-205.525-1.055-11.867-.053-18.527-.13-19.98-.23-24.33-1.7-46.34-13.31-61-32.83-40.41-53.79-5.52-132.09 62.72-135.19 7.27-.33 16 .08 20.87.08 153.88-.206 264.275-.548 419.045-.575.81 0 1.29.403 1.43 1.21 51.26 300.25-180.63 573.25-484.03 572.43-234.56-.63-437.57-169.97-479.68-401.17-25.03-137.43 9.9-279.92 95.89-389.48 189.39-241.29 551.22-252.06 753.39-21.06 52.72 60.24 88.93 130.017 108.64 209.33.21.847-.11 1.27-.98 1.27h-199.2c-.313 0-.533-.147-.66-.44-52.47-126.69-182.12-201.71-318.46-182.3-126.16 17.96-227.84 116.83-250.18 242.24-21.81 122.42 35.06 245.52 142.29 308.67 151.73 89.36 345.06 27.63 419.86-129.51 2.227-4.687 5.067-11.2 8.52-19.54 1.65-3.973 2.43-7.007 2.36-9.1z" fill="#fff" fill-rule="nonzero" transform="matrix(.671987 0 0 .671987 -7.5592 -7.6251)"/><path d="m1230.32 620.896c3.09 3.836 5.46 8.637 6.52 14.729 0 .028.01.056.01.084 54.51 319.266-192.08 609.551-514.694 608.681-249.446-.68-465.337-180.77-510.12-426.641-26.618-146.153 10.56-297.68 102.008-414.195 201.394-256.583 586.159-267.978 801.146-22.337 55.97 63.963 94.46 138.033 115.39 222.244 1.71 6.843 1.28 12.604-.26 17.435zm-265.946-11.927c-50.662-104.602-161.988-165.376-278.821-148.743-112.979 16.083-204.002 104.658-224.008 216.965-19.538 109.664 31.433 219.925 127.489 276.495 135.012 79.514 306.765 25.401 374.735-113.281-67.065-.377-106.289-.574-180.724-.914-13.049-.059-20.372-.193-21.97-.303l-.033-.002c-33.383-2.333-63.529-18.364-83.644-45.148-55.285-73.593-7.243-180.575 86.119-184.816 7.753-.352 17.062.047 22.263.048 65.095-.088 122.409-.199 178.594-.301zm39.656 213.301c.07 2.093-.71 5.127-2.36 9.1-3.453 8.34-6.293 14.853-8.52 19.54-74.8 157.14-268.13 218.87-419.86 129.51-107.23-63.15-164.1-186.25-142.29-308.67 22.34-125.41 124.02-224.28 250.18-242.24 136.34-19.41 265.99 55.61 318.46 182.3.127.293.347.44.66.44h199.2c.87 0 1.19-.423.98-1.27-19.71-79.313-55.92-149.09-108.64-209.33-202.17-231-564-220.23-753.39 21.06-85.99 109.56-120.92 252.05-95.89 389.48 42.11 231.2 245.12 400.54 479.68 401.17 303.4.82 535.29-272.18 484.03-572.43-.14-.807-.62-1.21-1.43-1.21-154.77.027-265.165.369-419.045.575-4.87 0-13.6-.41-20.87-.08-68.24 3.1-103.13 81.4-62.72 135.19 14.66 19.52 36.67 31.13 61 32.83 1.453.1 8.113.177 19.98.23 83.153.38 122.372.582 205.525 1.055 7.81.04 15.04 4.38 15.32 12.75z" transform="matrix(.671987 0 0 .671987 -7.5631 -7.6232)"/></svg>